<svg height="331.897951" viewBox="0 0 355.39 391.72" width="301.297431" xmlns="http://www.w3.org/2000/svg"><path d="m330.55 215.16-8.43-4.89-.1 9.44v2.49 1.06c0 .93 0 2.09-.13 3.09a38.1 38.1 0 0 1 -6.29-5.13c-1.52-1.45-5.61-5.85-9.57-10.4a133.41 133.41 0 0 0 6.85-18.08l3-.92 2.91-13.56-2.09-2.21q.44-2.76.75-5.56l2.39-1.7.58-12-2.3-1.79c0-1.41-.1-2.81-.19-4.22l2.16-2-1.94-11.63-2.36-1q-.32-1.37-.66-2.73l1.59-2-4-12.12-3-.51c-.4-.84-.83-1.68-1.26-2.51l.93-3.25-5.65-9.27-3.62-.28c-.36-.47-.73-.92-1.09-1.37l.2-3.87-7.53-8-2.67.16h-.69l-1.79-1.71.33-3.59-10.76-7.3-2.45 1c-5.72-3.66-12.78-9-13-16v-.14c0-.81.24-1 .44-1.22 1.79-1.68 7.32-2.11 10.62-1.78l.92.09.91-.2c1.16-.26 11.36-2.74 15.31-10a12.53 12.53 0 0 0 1.57-6.09 14.34 14.34 0 0 0 -.89-4.86c-2.48-6.79-7-8.48-9.91-9.59a9.09 9.09 0 0 1 -4.52-3c0-.94.1-1.94.1-2.8 0-13.14-4.28-17.38-8.6-19.72-2.44-1.33-11-5.43-17.81-2.54a11.4 11.4 0 0 0 -6.67 7.78c-.74 2.58-2.05 5.2-6.24 10.55a47.7 47.7 0 0 0 -21.58 26.11 55.09 55.09 0 0 0 -3 17.45c0 11.45 4 24.44 16.88 36.81a62.33 62.33 0 0 0 5.4 4.65h-.2l-7.84 5.77c-5.3-3.12-13.33-7.88-15.33-9.21-14.29-9.53-39.9.88-40.16 1-4.58 1.9-13.48 7-17.57 9.34-6.85-1.94-27.13-7.26-45.8-8.06s-50.7 15.22-74.51 31.35c-.28.19-28.49 20.19-31.31 28.22a15.06 15.06 0 0 0 -.88 5c0 7 5.1 14 15.24 21l.37.26c2.4 1.65 8 9 11.93 15.19.45 1.27 15.83 45.16 15.83 45.16l3.41 3.86 3 3.78c4.06 5 24.51 30.34 28.49 33.94 11.13 10.1 19.09 14.64 26.62 15.17a21.88 21.88 0 0 0 10.45-2.34l.77.65c26.28 22.26 42.37 48 50.65 81.14l1.55 6.21 6-2.26c26.81-10.13 79-56.37 90.16-113.36a49.19 49.19 0 0 0 18-13.73c3.28 1.77 6.27 3.28 8.47 4.38l.53.27c26.46 13.27 42.45 10.46 51.2 5.77 8.24-4.42 11.85-11.45 12.47-16.56 1.45-11.55-4.14-29.24-24.59-41.08z" fill="#d1d3d4"/><path d="m327.7 220.09c-.28 4.3 2.37 22.94-16.06 5.24-2.11-2-7.83-8.24-12.35-13.6 16.24-32.15 19.51-74.34-2.3-103.11-6.16-8.13-12.07-13.88-19.39-20.49-3.48-3.13-22.11-10.76-22.6-25.13-.34-10.85 17.33-9 17.33-9s15.51-3.49 11.89-13.42c-3.11-8.54-9.12-3.66-14.83-12.73 1.06-15.46-3.09-18-5.47-19.29s-13.88-6.64-16.29 1.8c-1.1 3.83-3 7.25-7.82 13.26-.35.44-14.39 6.72-20.07 23.66-5.26 15.64-3.58 32.9 12.45 48.34 11.48 11.06 20.23 11.18 24.69 16.7a9.19 9.19 0 0 1 -.38 8.09c-6.19-7.75-15.07-11.55-20.79-10.61l-9.71 7.2s-15.68-9.17-18.84-11.28c-9.83-6.55-29.19-.82-34.82 1.51s-19 10.23-19 10.23-24.87-7.59-46.8-8.52c-15.75-.68-45.46 12.85-71.14 30.29-3.89 2.6-27.4 20.31-29.15 25.36-3.25 9.28 9.38 17.47 12.59 19.68 4.95 3.41 13.85 17.35 13.85 17.35l15.68 44.76 2.76 3.12 3.13 3.89s24 29.8 27.87 33.29c9.85 8.93 16.92 13.26 23.2 13.71 7.44.53 18-8 24.09-13.11-2.15 7-9.59 12.75-9.59 12.75 25.81 21.86 43.6 48.53 52.49 84.1 27.46-10.37 78-57.73 87.14-112 10.68-4.17 17.52-10.94 21.4-17.19 5.12 3 10.15 5.47 13.21 7 38.72 19.42 54.33 2.95 55.47-6.39.91-7.55-1.79-23.83-21.84-35.46z" fill="#5091cd"/><path d="m309.17 139.5 3.88 1.65.93 5.56-4.33 4.11" fill="#5091cd"/><path d="m309.58 155.63 4.99 3.84-.3 6.28-5.81 4.13" fill="#5091cd"/><path d="m307.14 174.26 5.44 5.74-1.58 7.36-7.69 2.33" fill="#5091cd"/><path d="m301.99 123.21 6.43 1.08 1.95 5.96-3.61 4.58" fill="#5091cd"/><path d="m295.26 108.75 5.19.41 2.83 4.65-1.93 6.79" fill="#5091cd"/><path d="m283.66 96.4 5.78-.36 4.03 4.28-.31 6.35" fill="#5091cd"/><path d="m269 86.99 6.53-2.74 5.42 3.68-.93 10.08" fill="#5091cd"/><path d="m230.17 227.8c-5.61-10.13-19.61-12.32-26.38-1.84-4.77 7.38-1.4 19.79 7.39 27.5a46 46 0 0 0 30.64 10.86c7.62-.27 19.13-2.48 24.58-13.64-11.91 4.11-26.65-1-32.71-5-5.45-3.63-6.86-12.92-3.52-17.88z" fill="#fff"/><path d="m331.63 233.26c.62 8.54-.44 13.68-4.61 14.53-6.58 1.33-26.34-18.54-32-24.64-3.18 4.06-11.65 14.9-15.23 18.31a218 218 0 0 0 22.11 14.32c7.34 4.06 31.28 12.88 38.55.47 4.01-6.78-.55-16.75-8.82-22.99z" fill="#fff"/><path d="m192.72 159.07a7.11 7.11 0 0 1 -3.82.94 3.77 3.77 0 0 1 -.32-7.15c-.44-1.06-.86-2.21-1.34-3.48-10.1.4-5.52 15.71 8.28 12a26.77 26.77 0 0 1 -2.8-2.31z" fill="#fff"/><path d="m254.09 150.4c-.17.48-.35.94-.54 1.4a3.28 3.28 0 0 1 1.48 2.33 3.91 3.91 0 0 1 -1.61 4.29 2.65 2.65 0 0 1 -3.38-.13c-.65 1-1.32 2.07-2 3.12 8.7 2.98 13.58-10.75 6.05-11.01z" fill="#fff"/><g fill="#d1d3d4"><path d="m256.65 40.28c7.87 4.09 17 0 16.73-2.34.44.26 12.19 2.09-.73 7.4-8.09 2.87-14.81-.99-16-5.06z"/><path d="m150.61 129.57c-1.73 2.86-3.35 12.06-2.72 16.91-6.06 1.2-20.59-6.74-28.63-11.59-7.06-4.26-20.84-13-40.09-6.18 21.04-12.71 39.26-15.71 71.44.86z"/><path d="m172.61 155.06c-1.81 10.59 10.25 19.12 18.58 18.46-5.05 4.51-13.88 2.71-19.83-.12-9.34-4.43-14-14.33 1.3-18.59"/><path d="m111.27 183.64c-22.61-8.64-60.27-11.2-77.58-.54 15.05-1 45.28-1.48 70.42 10.93-20.13-3.71-51.47-.68-57.54 3.55 12.47-.82 53.39 7 69.38 17.07-17.37-6-53.44-7.85-62.23-2.82l9.52 25.73s31.59 43.62 39.82 44.19c15.38 1.07 42.13-24.58 45.89-32.76 3.62-7.9 4.4-15.35-1.13-26.55-4.02-9.6-26.05-34.78-36.55-38.8z"/><path d="m186.16 357.68c-3.27-12.43-12.17-30.26-22.83-40.36 0 0 18 12.94 32.35 9.55 0 0-5.65-1.59-7.42-14.91 0 0 24.77 17.45 41.54-6.3 0 0-14.19 33.83-43.64 52.02z"/><path d="m281.35 139.47a79.42 79.42 0 0 0 .42-15.86l-4.31-.8 3.79-3.38a36.17 36.17 0 0 0 -5.63-14.73l-5.54 1.24 2.74-4.8a39.45 39.45 0 0 0 -12-8.62l-4.79 2.25.6-4.39c-17.1-9.16-26.32-20.45-19.33-38.66 2-5.25 9.57-14.33 15.42-16v-.14a21.5 21.5 0 0 0 9.34-13s-.22-7.83-2.76-8.12c-2.23-.25-4.65.31-5.39 2.26-1.38 3.69-5.51 11.28-7.87 14-10.18 2.94-15.54 10.7-18.28 19.61-4.48 14.59-2.35 32.92 18.94 44.41 9.34 5 22.78 7.66 22.74 29.74 0 16.38-8.08 32.26-12.51 50a8.39 8.39 0 0 1 -2.65-.92 32 32 0 0 1 -3.65-3c-2.86-1.54-7.22-2.72-13.4-1.5-12.7 2.51-19.24 15.79-19.24 15.79 6.86-35.89 21.58-28.21 27.18-23.73a36.54 36.54 0 0 0 -4.77-6.5c-1.84-1.9-6.64-5.73-10.52-4.76-5 1.24-8.69 7.86-8.69 7.86s.21-12.46 5.69-15.42c6.52-3.5 13.83 6.51 16.86 11.32 4.17-2.44 5.62-7.57 6.14-9.28 0 0 0-17 6.55-7.21-.21-5.22-5.82-9.14-8.45-9.2-6.55-9.48-14.61-5.71-15.87 8.1-5.4-3.57-12.32-4.5-18.47 5.91a29.82 29.82 0 0 0 -11-18.72c-8.64-6.93-18.49-2.11-19.64-1.22-1.76 1.27-12.52 3.28-17.64 14.85 9-11 18.94-10.67 25.73-5.93 1.92 4.14 1.74 10.81 3.43 16.5s7.53 9.49 11 11.61a17.87 17.87 0 0 0 2 1.08c-.25 1.12-.93 4.46-.93 4.46-3.87 18-23.8 20.78-27.79 27.21-6.44 7.56-1.53 20.71-.1 30.29a56.52 56.52 0 0 1 -10.93-9.82 44.11 44.11 0 0 0 3.23 21.2c6.8 16.65 26 16.72 26 16.72-8.11-7.38-7.72-15.18-6.51-20.62 2.24-10 12.72-20.89 27.54-17 5.36 2.7 18 7.31 22.48 6.79 1.77-.2 4.15-3.06 6.38-5.83a28.6 28.6 0 0 1 -2.14-9.26 31.87 31.87 0 0 0 5.89 4.92 6.69 6.69 0 0 1 .7-.58 61.42 61.42 0 0 0 11.29-10 69.89 69.89 0 0 1 -4.07-7.84c2.79 1.52 5.24 2.69 7.39 3.63a55 55 0 0 0 7.07-14.07c-2-2.28-3.92-4.55-4.47-5.42l6 .19c1.18-4.47 2-9 2.85-13.62l-4.52-3.7 5.37-1q.48-2.66 1-5.32c.54-2.62 1-5.12 1.36-7.53l-4.38-3.12z"/><path d="m213 226.18s-3.47 11.87 9.35 22.9c11.45 9.92 30.65 8.56 30.65 8.56s-16.25 8.44-34.13-3.9c-18.36-12.65-14.87-27.58-5.87-27.56z"/><path d="m337.06 253.82c2.18-5.47-1.68-12.78-1.68-12.78 2.32 10.77-3.19 15-9.61 14.32-17-1.74-35.22-18.91-35.22-18.91l-4.4 5.05c23.12 17.22 36 17.6 39.36 17.89 5.72.49 10.29-2.39 11.55-5.57z"/></g></svg>